<svg width="314" height="20" viewBox="0 0 314 20" fill="none" xmlns="http://www.w3.org/2000/svg">
<g clip-path="url(#clip0_18_1343)">
<rect width="6" height="20" rx="3" fill="#84CDEE"/>
<rect x="7" width="6" height="20" rx="3" fill="#84CDEE"/>
<rect x="14" width="6" height="20" rx="3" fill="#84CDEE"/>
<rect x="21" width="6" height="20" rx="3" fill="#84CDEE"/>
<rect x="28" width="6" height="20" rx="3" fill="#84CDEE"/>
<rect x="35" width="6" height="20" rx="3" fill="#84CDEE"/>
<rect x="42" width="6" height="20" rx="3" fill="#78B060"/>
<rect x="49" width="6" height="20" rx="3" fill="#78B060"/>
<rect x="56" width="6" height="20" rx="3" fill="#78B060"/>
<rect x="63" width="6" height="20" rx="3" fill="#78B060"/>
<rect x="70" width="6" height="20" rx="3" fill="#78B060"/>
<rect x="77" width="6" height="20" rx="3" fill="#78B060"/>
<rect x="84" width="6" height="20" rx="3" fill="#78B060"/>
<rect x="91" width="6" height="20" rx="3" fill="#78B060"/>
<rect x="98" width="6" height="20" rx="3" fill="#78B060"/>
<rect x="105" width="6" height="20" rx="3" fill="#78B060"/>
<rect x="112" width="6" height="20" rx="3" fill="#78B060"/>
<rect x="119" width="6" height="20" rx="3" fill="#78B060"/>
<rect x="126" width="6" height="20" rx="3" fill="#78B060"/>
<rect x="133" width="6" height="20" rx="3" fill="#78B060"/>
<rect x="140" width="6" height="20" rx="3" fill="#78B060"/>
<rect x="147" width="6" height="20" rx="3" fill="#78B060"/>
<rect x="154" width="6" height="20" rx="3" fill="#FFDF32"/>
<rect x="161" width="6" height="20" rx="3" fill="#FFDF32"/>
<rect x="168" width="6" height="20" rx="3" fill="#FFDF32"/>
<rect x="175" width="6" height="20" rx="3" fill="#FFDF32"/>
<rect x="182" width="6" height="20" rx="3" fill="#FFDF32"/>
<rect x="189" width="6" height="20" rx="3" fill="#FFDF32"/>
<rect x="196" width="6" height="20" rx="3" fill="#FFDF32"/>
<rect x="203" width="6" height="20" rx="3" fill="#FFDF32"/>
<rect x="210" width="6" height="20" rx="3" fill="#FFDF32"/>
<rect x="217" width="6" height="20" rx="3" fill="#FFDF32"/>
<rect x="224" width="6" height="20" rx="3" fill="#F5554A"/>
<rect x="231" width="6" height="20" rx="3" fill="#F5554A"/>
<rect x="238" width="6" height="20" rx="3" fill="#F5554A"/>
<rect x="245" width="6" height="20" rx="3" fill="#F5554A"/>
<rect x="252" width="6" height="20" rx="3" fill="#F5554A"/>
<rect x="259" width="6" height="20" rx="3" fill="#F5554A"/>
<rect x="266" width="6" height="20" rx="3" fill="#F5554A"/>
<rect x="273" width="6" height="20" rx="3" fill="#F5554A"/>
<rect x="280" width="6" height="20" rx="3" fill="#F5554A"/>
<rect x="287" width="6" height="20" rx="3" fill="#F5554A"/>
<rect x="294" width="6" height="20" rx="3" fill="#F5554A"/>
<rect x="301" width="6" height="20" rx="3" fill="#F5554A"/>
<rect x="308" width="6" height="20" rx="3" fill="#F5554A"/>
</g>
<defs>
<clipPath id="clip0_18_1343">
<rect width="314" height="20" fill="white"/>
</clipPath>
</defs>
</svg>
